<svg viewBox="0 0 42 42" fill="none" xmlns="http://www.w3.org/2000/svg">
<path d="M8 32.688L21 40L29 35.5L34 32.687" stroke="#1161DA" stroke-width="4" stroke-linecap="round" stroke-linejoin="round"/>
<path d="M37 28V13L24.5 5.96899" stroke="#1161DA" stroke-width="4" stroke-linecap="round" stroke-linejoin="round"/>
<path d="M17.5 5.96899L5 13V28" stroke="#1161DA" stroke-width="4" stroke-linecap="round" stroke-linejoin="round"/>
<path d="M18 16.75L15 18.5V25.5L18 27.25L21 29L24 27.25L27 25.5V18.5L24 16.75L21 15L18 16.75Z" stroke="#1161DA" stroke-width="4" stroke-linecap="round" stroke-linejoin="round"/>
<path d="M21 15V8" stroke="#1161DA" stroke-width="4" stroke-linecap="round" stroke-linejoin="round"/>
<path d="M27 25L34 29" stroke="#1161DA" stroke-width="4" stroke-linecap="round" stroke-linejoin="round"/>
<path d="M15 25L8 29" stroke="#1161DA" stroke-width="4" stroke-linecap="round" stroke-linejoin="round"/>
<path d="M21 8C22.6569 8 24 6.65685 24 5C24 3.34315 22.6569 2 21 2C19.3431 2 18 3.34315 18 5C18 6.65685 19.3431 8 21 8Z" stroke="#1161DA" stroke-width="4" stroke-linecap="round" stroke-linejoin="round"/>
<path d="M5 34C6.65685 34 8 32.6569 8 31C8 29.3431 6.65685 28 5 28C3.34315 28 2 29.3431 2 31C2 32.6569 3.34315 34 5 34Z" stroke="#1161DA" stroke-width="4" stroke-linecap="round" stroke-linejoin="round"/>
<path d="M37 34C38.6569 34 40 32.6569 40 31C40 29.3431 38.6569 28 37 28C35.3431 28 34 29.3431 34 31C34 32.6569 35.3431 34 37 34Z" stroke="#1161DA" stroke-width="4" stroke-linecap="round" stroke-linejoin="round"/>
</svg>
