<svg viewBox="0 0 16 16" fill="none" xmlns="http://www.w3.org/2000/svg">
<path d="M2.72501 12.175C3.72501 11.175 3.82501 10.925 4.45001 11.55C5.07501 12.175 4.82501 12.25 3.82501 13.275C3.07501 14.025 2.12501 13.875 2.12501 13.875C2.12501 13.875 1.97501 12.925 2.72501 12.175Z" fill="#FF9D27"/>
<path d="M4.62501 13.2C5.02501 12.15 5.15001 12.025 4.57501 11.7C4.00001 11.375 4.00001 11.6 3.62501 12.65C3.32501 13.425 3.67501 14.125 3.67501 14.125C3.67501 14.125 4.35001 14 4.62501 13.2" fill="#FF9D27"/>
<path d="M4.05001 12.225C4.27501 11.65 4.27501 11.525 4.57501 11.7C4.90001 11.875 4.82501 11.95 4.60001 12.525C4.45001 12.95 4.07501 13.05 4.07501 13.05C4.07501 13.05 3.90001 12.675 4.05001 12.225Z" fill="#FDF516"/>
<path d="M4.27501 11.425C3.95001 10.85 3.82501 10.975 2.77501 11.375C2.00001 11.675 1.85001 12.325 1.85001 12.325C1.85001 12.325 2.55001 12.675 3.32501 12.375C4.37501 11.975 4.60001 11.975 4.27501 11.425Z" fill="#FF9D27"/>
<path d="M3.75 11.95C4.325 11.725 4.45 11.725 4.275 11.425C4.1 11.1 4.025 11.175 3.45 11.4C3.025 11.55 2.925 11.925 2.925 11.925C2.925 11.925 3.325 12.1 3.75 11.95Z" fill="#FDF516"/>
<path d="M3.475 11.9C4.025 11.35 4.075 11.2 4.425 11.55C4.775 11.9 4.625 11.95 4.075 12.5C3.65 12.925 3.125 12.825 3.125 12.825C3.125 12.825 3.075 12.325 3.475 11.9" fill="#FDF516"/>
<path d="M4.625 9.5C3.075 6.9 0.5 7.975 0.5 7.975C0.5 7.975 4.175 4.3 6.65 6.775L4.625 9.5Z" fill="#3BAACF"/>
<path d="M5.825 7.575L6.625 6.775C4.175 4.3 0.5 7.975 0.5 7.975C0.5 7.975 3.725 5.675 5.825 7.575" fill="#428BC1"/>
<path d="M6.5 11.375C9.1 12.925 8.025 15.5 8.025 15.5C8.025 15.5 11.7 11.825 9.225 9.35001L6.5 11.375Z" fill="#3BAACF"/>
<path d="M8.42499 10.175L9.22499 9.375C11.7 11.85 8.02499 15.525 8.02499 15.525C8.02499 15.525 10.325 12.275 8.42499 10.175" fill="#428BC1"/>
<path d="M12.2 7.725C9.275 10.625 6.05 12.2 4.925 11.075C3.8 9.95 5.37499 6.725 8.275 3.8C11.675 0.400005 15.45 0.550005 15.45 0.550005C15.45 0.550005 15.575 4.325 12.2 7.725" fill="#C5D0D8"/>
<path d="M11.45 6.9C8.55 9.8 5.65 11.7 4.975 11.025C4.3 10.35 6.2 7.45 9.1 4.55C12.5 1.15 15.5 0.5 15.5 0.5C15.5 0.5 14.85 3.5 11.45 6.9Z" fill="#DAE3EA"/>
<path d="M6.075 11.875C5.95 12 5.75 12 5.625 11.875L4.125 10.375C4 10.25 4 10.025 4.125 9.9L4.575 9.45L6.525 11.4L6.075 11.875Z" fill="#C94747"/>
<path d="M5.65 11.425C5.525 11.55 5.375 11.6 5.3 11.525L4.45 10.675C4.375 10.6 4.425 10.45 4.55 10.325L5 9.875L6.1 10.975L5.65 11.425" fill="#F15744"/>
<path d="M5.225 12.05C5.15 12.125 4.975 12.125 4.9 12.05L3.925 11.075C3.85 11 3.875 10.85 3.95 10.775L4.25 10.475L5.525 11.75L5.225 12.05" fill="#3E4347"/>
<path d="M5.025 11.85C4.95 11.925 4.8 11.95 4.75 11.9L4.075 11.225C4.025 11.175 4.05 11.05 4.15 10.975L4.45 10.675L5.325 11.55L5.025 11.85Z" fill="#62727A"/>
<path d="M15.45 0.549998C15.45 0.549998 14.1 0.499999 12.275 1.2L14.8 3.725C15.5 1.9 15.45 0.549998 15.45 0.549998Z" fill="#C94747"/>
<path d="M15.45 0.550003C15.45 0.550003 14.375 0.775003 12.75 1.7L14.3 3.25C15.225 1.625 15.45 0.550003 15.45 0.550003" fill="#F15744"/>
<path d="M10.875 6.375C11.5654 6.375 12.125 5.81536 12.125 5.125C12.125 4.43464 11.5654 3.875 10.875 3.875C10.1846 3.875 9.625 4.43464 9.625 5.125C9.625 5.81536 10.1846 6.375 10.875 6.375Z" fill="#EDF4F9"/>
<path d="M10.875 5.95C11.3306 5.95 11.7 5.58064 11.7 5.125C11.7 4.66937 11.3306 4.3 10.875 4.3C10.4194 4.3 10.05 4.66937 10.05 5.125C10.05 5.58064 10.4194 5.95 10.875 5.95Z" fill="#3BAACF"/>
<path d="M8.375 8.875C9.06536 8.875 9.625 8.31536 9.625 7.625C9.625 6.93464 9.06536 6.375 8.375 6.375C7.68464 6.375 7.125 6.93464 7.125 7.625C7.125 8.31536 7.68464 8.875 8.375 8.875Z" fill="#EDF4F9"/>
<path d="M8.375 8.45C8.83064 8.45 9.2 8.08064 9.2 7.625C9.2 7.16937 8.83064 6.8 8.375 6.8C7.91937 6.8 7.55 7.16937 7.55 7.625C7.55 8.08064 7.91937 8.45 8.375 8.45Z" fill="#3BAACF"/>
<path d="M12.225 1.725C12.15 1.8 12 1.8 11.925 1.725C11.85 1.65 11.85 1.5 11.925 1.425C12 1.35 12.15 1.35 12.225 1.425C12.3 1.5 12.3 1.65 12.225 1.725Z" fill="white"/>
<path d="M12.65 2.35C12.7605 2.35 12.85 2.26046 12.85 2.15C12.85 2.03955 12.7605 1.95 12.65 1.95C12.5395 1.95 12.45 2.03955 12.45 2.15C12.45 2.26046 12.5395 2.35 12.65 2.35Z" fill="white"/>
<path d="M13.25 2.95C13.3604 2.95 13.45 2.86046 13.45 2.75C13.45 2.63955 13.3604 2.55 13.25 2.55C13.1395 2.55 13.05 2.63955 13.05 2.75C13.05 2.86046 13.1395 2.95 13.25 2.95Z" fill="white"/>
<path d="M13.825 3.55C13.9355 3.55 14.025 3.46046 14.025 3.35C14.025 3.23954 13.9355 3.15 13.825 3.15C13.7145 3.15 13.625 3.23954 13.625 3.35C13.625 3.46046 13.7145 3.55 13.825 3.55Z" fill="white"/>
<path d="M14.425 4.12501C14.5354 4.12501 14.625 4.03546 14.625 3.92501C14.625 3.81455 14.5354 3.72501 14.425 3.72501C14.3145 3.72501 14.225 3.81455 14.225 3.92501C14.225 4.03546 14.3145 4.12501 14.425 4.12501Z" fill="white"/>
</svg>
